<svg width="29" height="27" viewBox="0 0 29 27" fill="none" xmlns="http://www.w3.org/2000/svg">
<path d="M23.5857 9.52257L23.7869 8.93829L23.7869 8.93829L23.5857 9.52257ZM23.2619 17.5465L23.4562 18.1331L23.4562 18.1331L23.2619 17.5465ZM5.49016 17.5379L5.2903 18.1226L5.29034 18.1226L5.49016 17.5379ZM5.22264 9.54713L5.01921 8.96364L5.01921 8.96364L5.22264 9.54713ZM9.89365 10.8298L9.35836 10.5211L9.35831 10.5211L9.89365 10.8298ZM15.6054 3.59582L16.0111 4.06196L16.0111 4.06196L15.6054 3.59582ZM21.3612 1.45854L21.6699 0.923231L21.6699 0.923228L21.3612 1.45854ZM22.3945 7.88486L21.7893 7.76017L21.7893 7.76029L22.3945 7.88486ZM19.0383 16.1034L19.5736 16.4121L19.5736 16.4121L19.0383 16.1034ZM13.509 23.2751L13.1023 22.8099L13.1023 22.8099L13.509 23.2751ZM7.52609 25.4489L7.8348 24.9136L7.83461 24.9135L7.52609 25.4489ZM6.45325 19.515L5.84616 19.3997L5.84616 19.3997L6.45325 19.515ZM9.89685 16.111L10.4316 15.8014L10.4316 15.8014L9.89685 16.111ZM6.48224 7.54979L5.87581 7.66844L5.87583 7.66855L6.48224 7.54979ZM7.50513 1.49578L7.8147 2.03057L7.81473 2.03056L7.50513 1.49578ZM13.5887 3.80994L13.1784 4.27201L13.1784 4.27202L13.5887 3.80994ZM19.0329 10.8221L18.4981 11.1317L18.4981 11.1317L19.0329 10.8221ZM22.4849 19.1942L23.091 19.0742L23.091 19.0742L22.4849 19.1942ZM21.3801 25.4632L21.0706 24.9284L21.0705 24.9284L21.3801 25.4632ZM15.7034 23.4291L16.1064 22.9607L16.1064 22.9607L15.7034 23.4291ZM16.4306 13.4409C16.4306 14.5263 15.5506 15.4063 14.4652 15.4063V16.6421C16.2332 16.6421 17.6664 15.2089 17.6664 13.4409H16.4306ZM14.4652 15.4063C13.3797 15.4063 12.4998 14.5263 12.4998 13.4409H11.2639C11.2639 15.2089 12.6972 16.6421 14.4652 16.6421V15.4063ZM12.4998 13.4409C12.4998 12.3554 13.3797 11.4755 14.4652 11.4755V10.2396C12.6972 10.2396 11.2639 11.6729 11.2639 13.4409H12.4998ZM14.4652 11.4755C15.5506 11.4755 16.4306 12.3554 16.4306 13.4409H17.6664C17.6664 11.6729 16.2332 10.2396 14.4652 10.2396V11.4755ZM14.4657 8.80643C17.8819 8.80643 21.0336 9.29749 23.3846 10.1069L23.7869 8.93829C21.2789 8.0749 17.9863 7.57056 14.4657 7.57056V8.80643ZM23.3846 10.1068C24.8005 10.5943 25.9092 11.1965 26.651 11.8154C27.4098 12.4486 27.6947 13.0191 27.6947 13.4409H28.9305C28.9305 12.4796 28.3156 11.5948 27.4427 10.8665C26.5528 10.124 25.2981 9.45856 23.7869 8.93829L23.3846 10.1068ZM27.6947 13.4409C27.6947 13.8887 27.3865 14.4971 26.5733 15.1666C25.7785 15.8209 24.59 16.4555 23.0675 16.9599L23.4562 18.1331C25.0772 17.596 26.414 16.8986 27.3588 16.1207C28.2851 15.3582 28.9305 14.4345 28.9305 13.4409H27.6947ZM23.0675 16.9599C20.7725 17.7203 17.7153 18.127 14.4657 18.127V19.3628C17.8009 19.3628 20.9982 18.9474 23.4562 18.1331L23.0675 16.9599ZM14.4657 18.127C11.1261 18.127 8.00446 17.744 5.68997 16.9531L5.29034 18.1226C7.78236 18.9742 11.0538 19.3628 14.4657 19.3628V18.127ZM5.69002 16.9531C4.22242 16.4515 3.07936 15.8143 2.31595 15.1605C1.53508 14.4918 1.23619 13.8835 1.23619 13.4409H0.000320554C0.000320554 14.4122 0.617104 15.3328 1.51206 16.0992C2.42445 16.8806 3.71735 17.5849 5.2903 18.1226L5.69002 16.9531ZM1.23619 13.4409C1.23619 13.0162 1.51058 12.4504 2.23991 11.8264C2.95533 11.2144 4.03188 10.6167 5.42608 10.1306L5.01921 8.96364C3.5274 9.48376 2.30175 10.1471 1.43648 10.8874C0.585123 11.6157 0.000320554 12.4937 0.000320554 13.4409H1.23619ZM5.42607 10.1306C7.78436 9.30842 11.0149 8.80643 14.4657 8.80643V7.57056C10.9117 7.57056 7.53798 8.08549 5.01921 8.96364L5.42607 10.1306ZM10.4289 11.1385C12.1357 8.17909 14.1355 5.69422 16.0111 4.06196L15.1998 3.12968C13.1989 4.87093 11.1172 7.47126 9.35836 10.5211L10.4289 11.1385ZM16.0111 4.06196C17.1407 3.07887 18.2163 2.41932 19.123 2.08596C20.0506 1.74493 20.6871 1.78314 21.0525 1.99385L21.6699 0.923228C20.8371 0.443028 19.7635 0.533737 18.6965 0.926003C17.6087 1.32594 16.4054 2.08048 15.1998 3.12968L16.0111 4.06196ZM21.0525 1.99384C21.4404 2.21754 21.8135 2.78846 21.9872 3.8274C22.1569 4.8427 22.1129 6.18938 21.7893 7.76017L22.9998 8.00954C23.3443 6.3371 23.4079 4.83064 23.2061 3.62361C23.0083 2.4402 22.5306 1.41958 21.6699 0.923231L21.0525 1.99384ZM21.7893 7.76029C21.302 10.1281 20.1265 12.9795 18.503 15.7947L19.5736 16.4121C21.2398 13.5229 22.4778 10.5457 22.9998 8.00942L21.7893 7.76029ZM18.503 15.7947C16.8346 18.6877 14.9435 21.2006 13.1023 22.8099L13.9157 23.7404C15.8982 22.0075 17.8691 19.3677 19.5736 16.4121L18.503 15.7947ZM13.1023 22.8099C11.9346 23.8307 10.8116 24.5026 9.86385 24.8373C8.89444 25.1796 8.21819 25.1347 7.8348 24.9136L7.21738 25.9842C8.05878 26.4694 9.16437 26.395 10.2754 26.0026C11.4081 25.6026 12.6642 24.8344 13.9157 23.7404L13.1023 22.8099ZM7.83461 24.9135C7.46686 24.7016 7.1138 24.1814 6.93761 23.2378C6.7648 22.3122 6.7849 21.0809 7.06034 19.6303L5.84616 19.3997C5.55144 20.9519 5.51372 22.3451 5.72274 23.4646C5.92838 24.566 6.39682 25.5113 7.21756 25.9843L7.83461 24.9135ZM7.06034 19.6303C7.52621 17.1767 8.70552 14.1278 10.429 11.1384L9.35831 10.5211C7.58344 13.5997 6.34375 16.7791 5.84616 19.3997L7.06034 19.6303ZM10.4316 15.8014C8.72016 12.8455 7.56657 9.87131 7.08866 7.43103L5.87583 7.66855C6.38558 10.2714 7.59817 13.3741 9.36209 16.4206L10.4316 15.8014ZM7.08868 7.43113C6.80112 5.96146 6.76682 4.70025 6.93084 3.74822C7.09863 2.77427 7.44965 2.24188 7.8147 2.03057L7.19556 0.960976C6.36357 1.44258 5.90592 2.41811 5.71291 3.53839C5.51613 4.6806 5.56891 6.09993 5.87581 7.66844L7.08868 7.43113ZM7.81473 2.03056C8.20227 1.8062 8.88321 1.76811 9.87005 2.13649C10.8344 2.49648 11.9792 3.20716 13.1784 4.27201L13.999 3.34787C12.7221 2.21411 11.4488 1.40663 10.3023 0.978653C9.17819 0.559055 8.0554 0.463188 7.19553 0.960994L7.81473 2.03056ZM13.1784 4.27202C14.9864 5.87726 16.8699 8.31923 18.4981 11.1317L19.5676 10.5125C17.8966 7.62599 15.9353 5.06711 13.999 3.34786L13.1784 4.27202ZM18.4981 11.1317C20.1713 14.0219 21.4038 16.9154 21.8787 19.3142L23.091 19.0742C22.5797 16.4913 21.2771 13.4653 19.5676 10.5125L18.4981 11.1317ZM21.8787 19.3142C22.1799 20.8357 22.2011 22.1441 22.0178 23.1324C21.8303 24.1432 21.4536 24.7066 21.0706 24.9284L21.6897 25.9979C22.5303 25.5113 23.018 24.5163 23.2329 23.3578C23.452 22.1767 23.4138 20.7049 23.091 19.0742L21.8787 19.3142ZM21.0705 24.9284C20.703 25.1412 20.0758 25.1872 19.1704 24.8686C18.2822 24.5561 17.2256 23.9238 16.1064 22.9607L15.3003 23.8975C16.4979 24.9281 17.686 25.6565 18.7602 26.0344C19.8171 26.4063 20.87 26.4725 21.6897 25.9979L21.0705 24.9284ZM16.1064 22.9607C14.2134 21.3318 12.1606 18.7879 10.4316 15.8014L9.36207 16.4206C11.1427 19.4963 13.2785 22.1577 15.3003 23.8975L16.1064 22.9607Z" fill="#00D8FF"/>
</svg>
